<?xml version="1.0" encoding="UTF-8"?>
<svg id="logo-dark" xmlns="http://www.w3.org/2000/svg" version="1.1" viewBox="0 0 76.21 47.28">
  <!-- Generator: Adobe Illustrator 29.5.1, SVG Export Plug-In . SVG Version: 2.1.0 Build 141)  -->
  <defs>
    <style>
      .st0 {
        fill: #074155;
      }

      .st0, .st1 {
        fill-rule: evenodd;
      }

      .st2 {
        fill: #fff;
      }

      .st3, .st1 {
        fill: #f2aa69;
      }

      .st4 {
        display: none;
      }
    </style>
  </defs>
  <g id="Layer1001" class="st4">
    <g id="Layer1002">
      <path id="path4" class="st0" d="M21.05,29.01c.25.49.41,1.02.47,1.56.04.46,0,.92-.13,1.37-.13.44-.31.86-.54,1.25-.45.8-1,1.53-1.65,2.18-.64.64-1.36,1.2-2.15,1.65-.8.45-1.65.8-2.53,1.05-.88.25-1.79.35-2.71.31-.94-.04-1.87-.2-2.77-.47-.89-.27-1.75-.67-2.53-1.18-.2-.12-.39-.25-.57-.38s-.37-.28-.54-.44c-.41-.33-.81-.69-1.21-1.07-.39-.38-.79-.77-1.18-1.16-.33-.35-.65-.72-.94-1.09-.3-.38-.56-.78-.79-1.21-.47-.85-.81-1.76-1.01-2.71-.21-.94-.29-1.9-.25-2.85.11-1.93.76-3.79,1.88-5.36.56-.79,1.19-1.52,1.9-2.18.7-.65,1.46-1.25,2.25-1.79.91-.62,1.85-1.18,2.82-1.69.96-.5,1.94-1,2.94-1.49.96-.47,1.91-.95,2.85-1.44.95-.49,1.85-1.07,2.71-1.71.75-.54,1.43-1.17,2.02-1.88.59-.71,1-1.56,1.19-2.47.14-.68.14-1.39,0-2.08-.46-1.49-1.37-2.79-2.62-3.72,1.19.83,2.27,1.81,3.21,2.91.5.59.88,1.27,1.12,2,.51,1.54.28,3.24-.62,4.59-.5.8-1.14,1.5-1.88,2.08-.75.58-1.53,1.11-2.35,1.57-1,.57-2.01,1.1-3.02,1.59-1.01.49-2.03,1-3.05,1.53-.86.45-1.73.94-2.59,1.47-.86.52-1.67,1.11-2.44,1.75-.76.63-1.46,1.34-2.09,2.1-.64.78-1.16,1.64-1.56,2.56-.35.84-.59,1.73-.71,2.63-.12.9-.12,1.82,0,2.72.12.9.35,1.79.69,2.63.34.85.8,1.65,1.37,2.37.35.26.7.48,1.03.68.82.45,1.69.8,2.59,1.05.9.24,1.83.35,2.77.31.91-.02,1.82-.17,2.69-.44.87-.27,1.69-.66,2.46-1.15.77-.51,1.47-1.11,2.1-1.78.63-.66,1.15-1.42,1.54-2.25.19-.4.33-.84.4-1.28.07-.45.05-.9-.04-1.34-.09-.38-.23-.74-.41-1.09,0-.01,0-.03-.02-.03,0,0,0,0,0,0h.03s-.07-.09-.09-.15c-.02-.06-.05-.11-.09-.15-.27.14-.55.26-.84.37-.28.11-.57.2-.87.28-.24.04-.48.08-.72.13-.24.05-.48.06-.72.04-.22,0-.45-.04-.65-.15-.08-.04-.15-.09-.21-.15l-.18-.18c-.22-.22-.44-.43-.66-.65-.23-.22-.45-.43-.66-.65l-.31-.31c-.11-.11-.17-.25-.16-.4,0-.21.05-.42.18-.59.12-.19.28-.35.49-.46.2-.11.41-.18.63-.22.5-.1,1.02-.03,1.49.19.47.22.92.48,1.34.78.02,0,.05.02.09.06.22-.11.42-.24.62-.38.35-.24.68-.51.99-.81.3-.31.56-.66.75-1.05.1-.21.17-.43.22-.66.05-.22.05-.44.01-.66-.05-.02-.1-.04-.15-.04-.05,0-.1-.02-.15-.04-.64-.16-1.31-.22-1.97-.18-.26.02-.54.05-.85.1-.3.05-.6.13-.88.25-.26.11-.5.28-.69.49-.19.22-.29.51-.28.81l-.15-.15c-.05-.03-.1-.07-.15-.12-.1-.1-.21-.2-.32-.31-.12-.11-.22-.22-.32-.34-.12-.1-.23-.2-.34-.31-.11-.11-.22-.21-.34-.31,0-.02-.04-.06-.13-.13s-.13-.12-.13-.16c-.01-.32.1-.63.32-.85.23-.22.51-.4.81-.5.32-.12.66-.2,1-.23.31-.04.62-.06.93-.06.57,0,1.13.07,1.68.21.24.06.47.13.69.21.23.08.44.2.63.35l.35.27c.06.06.16.15.31.28.16.14.31.29.46.44.16.17.31.33.47.49.12.12.25.24.38.35.15.15.29.32.41.5.28.42.37.92.26,1.41-.07.5-.29.97-.62,1.35-.33.39-.69.74-1.09,1.06-.24.19-.5.35-.76.5.08.08.15.15.22.21s.14.13.22.21h3.03s.07.04.15.13.13.13.15.13c.1.1.21.2.32.31.12.11.22.22.32.34.12.1.23.2.34.31.11.11.22.21.34.31-.02,0,.01.05.1.15.09.1-.97.15-.95.15h-2.39ZM41.46,39.61c-1.76-.61-3.07-1.25-4.2-1.25-2.57.05-5.03,1.08-6.88,2.87-1.02.91-1.85,2.02-2.42,3.26-.05-.25-.07-.5-.06-.76.02-1.26.39-2.5,1.07-3.56.65-1.08,1.51-2.01,2.54-2.74,1.17-.82,2.57-1.26,4-1.23.92-.02,1.84.16,2.69.52.41.19,1.15.75,2.35,1.46,3.21,1.89,4.83.21,4.87-3.26.03-.72-.23-1.43-.71-1.97-.47-.53-1.16-.83-1.88-.8-1.23.15-2.43.51-3.53,1.08-1.1.57-2.3.93-3.53,1.08-.7-.07-1.36-.34-1.9-.79-1.55-1.1-2.32-2.13-2.32-3.08.04-.6.37-1.14.88-1.45.46-.38,1.03-.61,1.62-.68l.03-.16-.74-1.03c-.4-.54-.61-1.19-.62-1.86,0-2.28,1.87-3.4,5.6-3.42.14-.01.24-.13.22-.27v-1.65h-9.04v13.36c.02.45.02.91,0,1.38-.02.47-.08.93-.18,1.38-.11.35-.26.69-.44,1.02-.18.33-.51.55-.88.57-.02,0-.07-.04-.15-.12-.04-.05-.08-.09-.12-.15-.12-.1-.23-.21-.34-.32s-.22-.22-.34-.32c-.1-.1-.21-.2-.32-.31-.12-.11-.22-.22-.32-.34,0,.02-.01.01-.04-.02l-.1-.1s-.08-.09-.12-.15c.25,0,.48-.11.66-.28.17-.17.31-.38.41-.6.11-.23.19-.48.24-.74.05-.26.08-.49.1-.71.08-.6.11-1.21.09-1.81-.02-.6-.03-1.2-.03-1.81v-9.95h-.82s-.07-.04-.15-.12l-.12-.12-.34-.34c-.11-.11-.22-.21-.34-.31l-.65-.65c-.05-.03-.1-.07-.15-.12l-.15-.15h21.23v1.8h-5.28v2.49c0,.47.13.75.4.86.17,0,.37-.17.63-.47l.58-.67c.22-.2.5-.31.8-.3.73.05,1.4.45,1.78,1.07.24.29.41.62.51.98l-1.57,1.78c-.01-.44-.11-.87-.28-1.27-.23-.51-.52-.77-.89-.77-.18.01-.35.08-.49.19-.19.13-.28.26-.28.39.02.19.08.38.19.54.1.15.18.3.25.46.07.28.11.58.1.87.11,1.17-.55,2.28-1.64,2.74-1.1.38-2.26.54-3.42.48-1.98,0-3.33.44-4.06,1.33-.23.23-.38.53-.42.85.02.32.19.6.45.78.25.21.56.33.89.33,1.15-.2,2.25-.59,3.26-1.18,1.41-.78,2.97-1.26,4.58-1.41,1.07-.01,2.08.52,2.68,1.41.67.84,1.11,1.85,1.26,2.92.47,3.49-.18,6.85-4.75,5.27h0ZM24.43,33.28c.02.45.02.91,0,1.38-.02.47-.08.93-.18,1.38-.11.35-.26.69-.44,1.02-.18.33-.51.55-.88.57-.02,0-.07-.04-.15-.12-.04-.05-.08-.09-.12-.15-.12-.1-.23-.21-.34-.32-.11-.12-.22-.22-.34-.32-.1-.1-.21-.2-.32-.31-.12-.11-.22-.22-.32-.34,0,.02-.01.01-.04-.02l-.1-.1s-.08-.09-.12-.15c.25,0,.48-.11.66-.28.17-.17.31-.38.41-.6.11-.24.19-.48.24-.74.05-.26.08-.49.1-.71.08-.6.11-1.21.09-1.81-.02-.6-.03-1.2-.03-1.81v-9.95h-.82s-.07-.04-.15-.12l-.12-.12-.34-.34c-.11-.11-.22-.21-.34-.31l-.65-.65c-.05-.03-.1-.07-.15-.12l-.15-.15h7.27s.07.04.15.12l.15.15c.1.1.21.2.32.31.12.11.23.21.32.31l.34.34c.11.11.22.21.34.31-.02,0,.01.04.1.13.09.09.14.13.16.13h-4.56v13.36h0ZM40.76,24.73c0-1.2-.64-1.8-1.92-1.8-1.07.01-2.11.4-2.93,1.08-.9.6-1.45,1.59-1.49,2.67,0,.54.23,1.05.63,1.4.39.37.91.58,1.45.58.68-.03,1.35-.24,1.92-.61.59-.34,1.13-.77,1.58-1.28.5-.56.77-1.29.76-2.04h0ZM60.46,19.92h-9.92v2.38s.09.02.12.06c.04.04.07.06.1.06-.04,0-.09,0-.13-.02.72-.22,1.46-.38,2.21-.47.54-.1,1.08-.15,1.63-.15,2.23,0,3.66.62,4.3,1.88.55,1.62.76,3.34.64,5.05v5.73c-.21-.08-1-.4-2.37-.97,0-.32-.06-.52-.19-.61-.52.3-.96.54-1.3.7-1.17.53-2.45.79-3.73.76-1.71.1-3.37-.58-4.52-1.84-.5-.54-.77-1.25-.78-1.99.06-.95.5-1.83,1.22-2.45,1.55-1.57,3.67-2.42,5.87-2.37,1.22-.06,2.42.28,3.42.98v-1.37c-.33-.47-.76-.85-1.27-1.12-.54-.21-1.11-.29-1.69-.25-1.5.01-2.99.31-4.38.88-.6.25-1.17.48-1.74.68v-1.1c.13-.11.32-.26.56-.49.03-.03.05-.06.08-.09v-3.84h-3.05v-1.8h14.92v1.8ZM57.04,29.33c0-.44-.52-.83-1.56-1.18-.69-.26-1.42-.4-2.15-.43-1.94-.07-3.79.77-5.02,2.27-.41.4-.67.93-.76,1.49.2.73,1.02,1.09,2.45,1.09,1.78.02,3.53-.46,5.05-1.39,1.32-.81,1.99-1.42,1.99-1.85h0ZM76.21,19.92h-16v-1.8h16v1.8ZM73.01,26.45c0-2.38-1.13-3.57-3.38-3.57-1.76.05-3.36,1.05-4.19,2.62-.97,1.47-1.49,3.19-1.49,4.94v4.33l-2.44-1.28v-11.18h2.56v1.77l1.33-1c1.06-.84,2.36-1.3,3.71-1.32,1.7-.03,3.32.73,4.39,2.05,1.09,1.29,1.67,2.94,1.64,4.63-.08,2.45-1.11,4.77-2.86,6.49l-2.88-1.8c.89-.88,1.65-1.7,2.28-2.44.93-1.2,1.4-2.7,1.32-4.22h0Z"/>
      <g id="Layer1003">
        <path id="path6" class="st0" d="M22.13,12.64c-.28.03-.53.16-.72.38-.19.21-.29.49-.29.78,0,3.12,8.68,3.58,9.66-1.43-1.96,2.64-7.03,3.52-8.66.27Z"/>
        <path id="path8" class="st0" d="M24.83,12.53c-.01.26.08.52.26.72.19.19.46.29.73.27.33,0,.64-.15.86-.4.24-.22.38-.53.39-.86.01-.27-.08-.53-.26-.73-.19-.19-.45-.28-.72-.27-.33.01-.64.16-.86.41-.24.22-.39.53-.4.86Z"/>
      </g>
    </g>
    <path id="path12" class="st1" d="M35.37,41.79h-1.99v5.39h1.99c1.49.09,2.77-1.04,2.86-2.53s-1.04-2.77-2.53-2.86c-.11,0-.22,0-.33,0ZM35.37,46.39h-1.13v-3.81h1.13c1.05-.06,1.94.75,2,1.8,0,.03,0,.05,0,.08,0,1.06-.85,1.93-1.91,1.94-.03,0-.06,0-.09,0h0ZM45.21,42.57v-.79h-3.87v5.39h3.87v-.79h-3.02v-1.48h2.7v-.79h-2.7v-1.55h3.02ZM50.73,46.48c-1.1-.06-1.95-.99-1.9-2.1.05-1.03.87-1.85,1.9-1.9.83-.04,1.56.53,1.73,1.34h.88c-.21-1.26-1.33-2.18-2.61-2.13-1.54,0-2.79,1.25-2.79,2.79s1.25,2.79,2.79,2.79c1.28.04,2.4-.88,2.61-2.15h-.88c-.17.81-.9,1.38-1.73,1.34h0ZM59.09,41.69c-1.54,0-2.78,1.27-2.77,2.81,0,1.54,1.27,2.78,2.81,2.77,1.53,0,2.77-1.26,2.77-2.79,0-1.54-1.24-2.79-2.78-2.79,0,0-.01,0-.02,0ZM59.09,46.47c-1.1.03-2.02-.84-2.05-1.94-.03-1.1.84-2.02,1.94-2.05,1.1-.03,2.02.84,2.05,1.94,0,.02,0,.04,0,.06.03,1.07-.83,1.97-1.9,1.99-.01,0-.03,0-.04,0h0ZM68.5,47.17h1.05l-1.51-1.96c.72-.22,1.21-.89,1.2-1.65-.03-1.02-.88-1.83-1.9-1.8-.06,0-.12,0-.17.01h-2.16v5.39h.86v-1.82h1.24l1.4,1.82ZM65.86,42.57h1.28c.72,0,1.27.38,1.27,1s-.55,1-1.27,1h-1.28v-2ZM76.21,42.57v-.78h-3.87v5.39h3.87v-.79h-3.02v-1.48h2.7v-.79h-2.7v-1.55h3.02Z"/>
  </g>
  <g>
    <path class="st0" d="M20.35,27.2c.23.48.38.97.44,1.46.04.44,0,.87-.12,1.28-.12.41-.29.8-.51,1.17-.42.76-.93,1.44-1.54,2.04-.61.61-1.27,1.12-2.01,1.55-.75.42-1.54.75-2.37.98-.82.23-1.67.32-2.53.29-8.28-.35-14.27-9.71-9.28-16.8.53-.76,1.13-1.44,1.77-2.05.65-.6,1.36-1.16,2.11-1.68.86-.59,1.74-1.12,2.64-1.59.9-.46,1.82-.93,2.75-1.39.9-.44,1.79-.89,2.67-1.35.88-.46,1.73-.99,2.53-1.6.7-.5,1.33-1.09,1.89-1.76.56-.68.93-1.45,1.12-2.31.13-.65.13-1.29,0-1.95-.19-.97-1.5-3.01-2.45-3.48.8.44,2.44,2.03,3,2.73.48.57.82,1.2,1.04,1.88.24.74.31,1.48.21,2.22-.1.75-.37,1.44-.79,2.08-.48.75-1.06,1.41-1.76,1.95-.69.54-1.43,1.03-2.2,1.47-.94.54-1.88,1.03-2.82,1.49-.94.46-1.89.94-2.84,1.44-.81.42-1.62.88-2.42,1.37-.81.5-1.57,1.05-2.29,1.64-.71.6-1.36,1.26-1.95,1.97-.59.73-1.08,1.52-1.46,2.41-.33.79-.55,1.61-.66,2.47-.77,5.96,4.55,10.58,10.42,8.73.82-.25,1.58-.61,2.3-1.08.72-.48,1.37-1.03,1.97-1.67.59-.63,1.08-1.33,1.44-2.11.18-.39.31-.78.37-1.2.07-.41.05-.83-.04-1.26-.09-.37-.22-.71-.38-1.02,0-.02-.01-.03-.03-.03h.03s-.07-.08-.08-.14c-.02-.06-.05-.1-.08-.14-.26.13-.52.25-.79.35-.27.1-.53.19-.81.26-.22.04-.44.08-.68.12-.23.05-.45.06-.67.05-.23,0-.44-.05-.61-.14-.07-.04-.14-.08-.19-.14-.06-.05-.11-.1-.17-.16-.2-.2-.4-.41-.61-.61-.22-.2-.42-.41-.62-.61-.09-.09-.19-.18-.29-.29-.1-.1-.15-.22-.15-.37-.02-.16.04-.35.16-.55.11-.18.26-.33.46-.43.2-.1.39-.17.59-.2.48-.09.94-.03,1.39.18.45.22.87.46,1.25.73.02,0,.05.02.08.05.24-.12.43-.24.58-.35.33-.22.64-.48.92-.76.29-.29.52-.61.7-.98.09-.2.16-.41.21-.63.05-.21.05-.42.01-.62-.04-.02-.08-.03-.14-.04-.06-.01-.1-.03-.14-.05-.6-.14-1.22-.2-1.84-.16-.24.02-.51.05-.8.1-.29.05-.57.12-.82.24-.25.11-.48.26-.65.45-.18.2-.26.45-.26.76l-.14-.14c-.06-.03-.1-.07-.14-.11-.09-.09-.19-.19-.3-.29-.11-.1-.21-.22-.3-.32-.11-.1-.22-.19-.32-.29-.1-.1-.2-.2-.31-.29,0-.02-.05-.06-.12-.12-.08-.07-.12-.12-.12-.15,0-.33.1-.6.3-.8.2-.2.46-.35.76-.46.3-.11.61-.18.94-.22.32-.04.61-.06.86-.06.55,0,1.08.07,1.57.2.22.05.44.12.65.2.21.07.41.18.59.33l.33.25c.06.06.16.14.29.26s.28.26.42.41c.15.16.29.31.44.46.14.15.26.25.35.33.15.14.28.31.38.47.26.39.34.83.25,1.33-.07.48-.26.9-.57,1.27-.31.37-.65.7-1.02.99-.24.18-.48.34-.72.47.07.07.14.14.21.19.07.06.13.12.2.2h2.84s.07.04.14.12c.07.08.12.12.14.12.09.09.2.18.3.29.11.1.22.21.31.31.11.1.22.19.31.29.1.1.21.2.32.29-.02,0,.01.05.1.14.08.09-.91.14-.89.14h-2.23ZM20.35,27.2h0ZM39.44,37.13c-1.64-.57-2.87-1.17-3.93-1.17-2.27,0-4.42.9-6.43,2.69-.97.86-1.72,1.88-2.26,3.05-.04-.15-.06-.39-.06-.71,0-1.12.33-2.23,1-3.34.61-1.02,1.4-1.88,2.38-2.56,1.09-.77,2.34-1.16,3.74-1.16.97,0,1.8.16,2.52.49.38.18,1.07.7,2.2,1.37,3,1.77,4.52.2,4.55-3.06,0-.73-.22-1.35-.67-1.85-.44-.5-1.03-.75-1.75-.75-.67,0-1.77.34-3.3,1.01-1.53.68-2.64,1.01-3.3,1.01-.5,0-1.09-.24-1.78-.74-1.45-1.03-2.17-1.99-2.17-2.88,0-.5.27-.94.82-1.36.49-.37,1-.59,1.51-.63l.03-.15-.68-.97c-.38-.54-.57-1.12-.57-1.75,0-2.14,1.74-3.19,5.24-3.21.11,0,.21-.1.21-.25v-1.54h-8.46v12.52c.02.42.02.86,0,1.29-.02.44-.07.88-.16,1.3-.1.31-.23.63-.42.95-.18.32-.46.5-.82.54-.02,0-.07-.03-.14-.11-.04-.03-.08-.08-.11-.14-.11-.09-.22-.19-.32-.3-.1-.11-.2-.21-.31-.3-.09-.1-.2-.19-.31-.29-.11-.1-.21-.2-.3-.31,0,.02-.01.01-.04-.01-.03-.03-.07-.07-.1-.1-.04-.04-.07-.08-.11-.14.25-.02.46-.1.62-.26.16-.16.28-.35.38-.57.1-.22.18-.45.22-.69.05-.24.08-.46.09-.67.08-.57.1-1.13.08-1.69-.02-.56-.03-1.12-.03-1.69v-9.33h-.77s-.07-.04-.14-.11l-.11-.11c-.11-.11-.22-.22-.32-.32-.1-.1-.2-.2-.31-.29l-.61-.61c-.06-.03-.1-.07-.14-.11l-.14-.14h19.86v1.69h-4.94v2.34c0,.44.12.71.37.81.16,0,.35-.16.59-.44l.55-.63c.13-.15.39-.26.75-.28.58-.03,1.14.33,1.66,1.01.24.3.4.61.48.92l-1.46,1.67c-.02-.43-.11-.84-.27-1.19-.22-.48-.49-.72-.84-.72-.13,0-.28.06-.46.18-.18.12-.27.25-.27.37,0,.14.07.31.18.5.14.23.22.37.23.43.07.22.1.48.1.82,0,1.26-.51,2.12-1.53,2.56-.68.3-1.74.45-3.21.45-1.85,0-3.12.41-3.8,1.24-.27.33-.4.59-.38.79,0,.28.14.52.42.74.27.2.54.31.83.31.53,0,1.55-.37,3.05-1.1,1.77-.87,3.21-1.31,4.29-1.33.99-.02,1.83.42,2.51,1.33.55.72,1.04,1.61,1.19,2.73.43,3.27-.17,6.42-4.45,4.94h0ZM39.44,37.13h0ZM23.51,31.2c.02.42.02.86,0,1.29-.02.44-.07.88-.16,1.3-.09.31-.23.63-.42.95-.18.32-.46.5-.82.54-.02,0-.07-.03-.14-.11-.04-.03-.08-.08-.11-.14-.11-.09-.22-.19-.32-.3-.1-.11-.2-.21-.31-.3-.09-.1-.2-.19-.31-.29-.1-.1-.21-.2-.3-.31,0,.02-.01.01-.04-.01-.03-.03-.06-.07-.1-.1-.04-.04-.07-.08-.11-.14.25-.02.46-.1.62-.26.16-.16.29-.35.38-.57.1-.22.18-.45.22-.69.05-.24.08-.46.1-.67.07-.57.1-1.13.08-1.69-.02-.56-.03-1.12-.03-1.69v-9.33h-.77s-.07-.04-.14-.11l-.11-.11c-.11-.11-.22-.22-.32-.32-.1-.1-.2-.2-.31-.29l-.61-.61c-.05-.03-.1-.07-.14-.11l-.14-.14h6.8s.07.04.14.11c.07.07.12.12.14.14.09.09.2.19.3.29.11.1.22.2.31.29.11.11.22.22.31.31.1.1.21.2.32.29-.02,0,.01.04.1.12.08.08.13.12.15.12h-4.27v12.52h0ZM23.51,31.2h0ZM38.79,23.19c0-1.12-.6-1.69-1.79-1.69-.97,0-1.89.34-2.75,1.01-.93.73-1.4,1.56-1.4,2.5,0,.51.2.95.59,1.31.39.36.85.54,1.36.54.53,0,1.13-.18,1.8-.58.59-.35,1.09-.75,1.48-1.2.48-.56.7-1.2.7-1.92h0ZM38.79,23.19h0ZM57.21,18.67h-9.28v2.23s.08.02.12.06c.04.03.07.05.09.05-.07,0-.11,0-.12-.01,0-.05.69-.2,2.07-.45.51-.09,1.02-.14,1.52-.14,2.09,0,3.42.59,4.02,1.76.4.78.6,2.36.6,4.73v5.37c-.2-.08-.93-.38-2.22-.91,0-.3-.05-.49-.18-.58-.49.29-.89.5-1.21.65-1,.48-2.17.71-3.49.71-1.83,0-3.24-.58-4.23-1.73-.48-.56-.72-1.18-.72-1.87,0-.77.38-1.54,1.14-2.29,1.47-1.48,3.31-2.22,5.49-2.22,1.32,0,2.39.31,3.2.92v-1.29c-.41-.52-.8-.87-1.19-1.05-.38-.18-.91-.25-1.58-.24-1.49.03-2.86.3-4.1.82-.56.23-1.1.44-1.63.63v-1.03c.12-.1.3-.25.53-.46.04-.05.06-.08.07-.08v-3.6h-2.85v-1.69h13.95v1.69h0ZM57.21,18.67h0ZM54.01,27.5c0-.41-.48-.78-1.46-1.1-.8-.27-1.47-.41-2.01-.41-1.96,0-3.53.71-4.7,2.12-.48.58-.7,1.03-.7,1.4.19.69.95,1.02,2.29,1.02,1.72,0,3.3-.43,4.72-1.3,1.25-.75,1.87-1.33,1.87-1.73h0ZM54.01,27.5h0ZM71.94,18.67h-14.97v-1.69h14.97v1.69h0ZM71.94,18.67h0ZM68.96,24.8c0-2.24-1.06-3.35-3.16-3.35-1.56,0-2.86.82-3.91,2.45-.93,1.45-1.39,2.99-1.39,4.63v4.06l-2.28-1.2v-10.48h2.39v1.66l1.24-.93c1.1-.83,2.26-1.24,3.47-1.24,1.65,0,3.03.65,4.11,1.93,1.02,1.21,1.53,2.66,1.53,4.34,0,2.1-.89,4.14-2.67,6.08l-2.69-1.69c.84-.83,1.55-1.59,2.13-2.29.82-.99,1.24-2.31,1.24-3.96h0Z"/>
    <path class="st0" d="M21.36,11.85c-.27.03-.49.15-.67.35-.18.21-.27.46-.27.74,0,2.93,8.12,3.37,9.04-1.34-1.83,2.48-6.58,3.31-8.1.25h0Z"/>
    <path class="st0" d="M23.89,11.75c0,.28.08.52.24.69.16.16.39.25.68.25s.56-.12.81-.37c.25-.25.37-.52.37-.81s-.08-.52-.24-.69c-.16-.17-.39-.25-.68-.25s-.55.12-.81.38c-.25.26-.37.53-.37.81h0Z"/>
    <rect class="st2" x=".61"/>
    <g>
      <path class="st3" d="M35.4,44.75v-.73h2.62s0,2.29,0,2.29c-.4.32-.82.56-1.24.72-.43.16-.87.24-1.31.24-.61,0-1.16-.13-1.65-.39s-.87-.64-1.12-1.13c-.25-.49-.38-1.04-.38-1.65s.13-1.16.38-1.69c.25-.52.61-.91,1.08-1.16s1.02-.38,1.63-.38c.45,0,.85.07,1.21.22.36.14.64.35.85.61s.36.6.47,1.01l-.74.2c-.09-.32-.21-.56-.35-.74-.14-.18-.33-.32-.59-.43-.26-.11-.54-.16-.85-.16-.37,0-.7.06-.97.17-.27.11-.49.26-.66.45-.17.19-.3.39-.39.61-.16.38-.24.8-.24,1.25,0,.55.09,1.01.28,1.39.19.37.47.65.83.83.36.18.75.27,1.15.27.35,0,.7-.07,1.04-.2s.59-.28.77-.44v-1.15h-1.82Z"/>
      <path class="st3" d="M40.92,47.18v-6.19h2.74c.55,0,.97.06,1.26.17.29.11.52.31.69.59.17.28.26.59.26.93,0,.44-.14.81-.43,1.11-.28.3-.72.49-1.31.57.22.1.38.21.49.31.24.22.46.49.68.82l1.07,1.68h-1.03l-.82-1.29c-.24-.37-.44-.66-.59-.85-.15-.2-.29-.34-.41-.41-.12-.08-.25-.13-.37-.16-.09-.02-.24-.03-.46-.03h-.95v2.75h-.82ZM41.74,43.72h1.76c.37,0,.67-.04.88-.12s.37-.2.48-.37.16-.36.16-.56c0-.29-.11-.53-.32-.72s-.55-.28-1.01-.28h-1.96v2.05Z"/>
      <path class="st3" d="M48.59,44.16c0-1.03.28-1.83.83-2.41.55-.58,1.26-.87,2.13-.87.57,0,1.08.14,1.54.41.46.27.81.65,1.05,1.14.24.49.36,1.04.36,1.66s-.13,1.19-.38,1.68c-.25.5-.61.87-1.07,1.13-.46.25-.96.38-1.5.38-.58,0-1.1-.14-1.56-.42-.46-.28-.8-.67-1.04-1.15-.24-.49-.35-1-.35-1.55ZM49.43,44.17c0,.75.2,1.33.6,1.76.4.43.9.64,1.51.64s1.12-.22,1.52-.65c.4-.43.6-1.05.6-1.85,0-.5-.09-.94-.25-1.32-.17-.38-.42-.67-.75-.87-.33-.21-.69-.31-1.1-.31-.58,0-1.08.2-1.49.6s-.63,1.06-.63,2Z"/>
      <path class="st3" d="M61.3,40.99h.82v3.58c0,.62-.07,1.12-.21,1.48-.14.37-.39.66-.76.89s-.85.34-1.44.34-1.05-.1-1.42-.3c-.37-.2-.63-.49-.79-.87-.16-.38-.24-.9-.24-1.55v-3.58h.82v3.57c0,.54.05.93.15,1.19s.27.45.51.59c.24.14.54.21.89.21.6,0,1.03-.14,1.29-.41.26-.27.38-.8.38-1.58v-3.57Z"/>
      <path class="st3" d="M65.64,47.18v-6.19h2.33c.41,0,.72.02.94.06.3.05.56.15.76.29s.37.34.5.6.19.54.19.84c0,.53-.17.97-.5,1.34s-.94.55-1.81.55h-1.58v2.52h-.82ZM66.46,43.93h1.6c.53,0,.9-.1,1.13-.3.22-.2.33-.47.33-.83,0-.26-.07-.48-.2-.66s-.3-.31-.52-.37c-.14-.04-.39-.06-.76-.06h-1.58v2.21Z"/>
    </g>
    <rect class="st2" x=".61"/>
    <g>
      <path class="st3" d="M72.68,16.13v-1.68h-.62v-.22h1.5v.22h-.63v1.68h-.25Z"/>
      <path class="st3" d="M73.79,16.13v-1.9h.38l.45,1.35c.04.13.07.22.09.28.02-.07.06-.17.1-.3l.45-1.32h.34v1.9h-.24v-1.59l-.55,1.59h-.23l-.55-1.62v1.62h-.24Z"/>
    </g>
  </g>
</svg>